<svg version="1.2" baseProfile="tiny-ps" id="Layer_1" xmlns="http://www.w3.org/2000/svg" xmlns:xlink="http://www.w3.org/1999/xlink"
	 width="100%" viewBox="0 0 253 284" xml:space="preserve"><title>Jonen</title>
<path fill="#FEFEFE" solid-opacity="1.000000" stroke="none" 
	d="
M139.000000,285.000000 
	C92.666664,285.000000 46.833332,285.000000 1.000000,285.000000 
	C1.000000,190.333328 1.000000,95.666664 1.000000,1.000000 
	C85.333336,1.000000 169.666672,1.000000 254.000000,1.000000 
	C254.000000,95.666664 254.000000,190.333328 254.000000,285.000000 
	C215.833328,285.000000 177.666672,285.000000 139.000000,285.000000 
M220.593170,237.112610 
	C221.260071,236.369141 221.980682,235.666809 222.585968,234.876175 
	C236.242111,217.038803 244.635345,197.088821 247.148514,174.665665 
	C249.515167,153.549606 246.874054,133.254517 238.299530,113.246399 
	C239.607819,111.736183 240.968704,110.268044 242.216171,108.709145 
	C252.668198,95.647873 252.901505,80.774467 241.890198,68.169861 
	C237.035843,62.613110 231.049271,57.779655 224.857910,53.711933 
	C211.908829,45.204388 197.288467,40.442886 182.256653,37.089394 
	C178.795761,36.317295 177.065063,35.013416 175.967819,31.464920 
	C171.288803,16.332932 160.991394,6.653171 145.417419,3.972762 
	C136.980133,2.520636 128.167236,3.053926 119.523247,3.040435 
	C101.313660,3.012014 86.237083,14.079419 81.062073,31.455595 
	C80.035103,34.903877 78.252472,36.087822 75.056999,36.783749 
	C59.505756,40.170593 44.268398,44.835052 31.059217,53.851845 
	C23.764708,58.831196 16.785080,64.985535 11.469213,71.982140 
	C3.541853,82.415924 4.164865,94.104301 11.268296,105.168015 
	C13.233844,108.229393 15.709287,110.963394 17.429331,114.353607 
	C7.466833,138.280731 5.206966,162.928818 11.122586,188.149780 
	C15.437261,206.545197 23.210958,223.340179 36.386543,238.022354 
	C36.931709,238.852356 37.383324,239.765457 38.035801,240.500153 
	C52.457664,256.738922 69.990334,268.288910 90.635262,275.004333 
	C121.085030,284.909119 150.846756,282.912140 179.705811,269.128754 
	C195.437531,261.615051 208.828110,250.947220 220.593170,237.112610 
z"/>
<path fill="#20343D" solid-opacity="1.000000" stroke="none" 
	d="
M17.950783,113.847603 
	C15.709287,110.963394 13.233844,108.229393 11.268296,105.168015 
	C4.164865,94.104301 3.541853,82.415924 11.469213,71.982140 
	C16.785080,64.985535 23.764708,58.831196 31.059217,53.851845 
	C44.268398,44.835052 59.505756,40.170593 75.056999,36.783749 
	C78.252472,36.087822 80.035103,34.903877 81.062073,31.455595 
	C86.237083,14.079419 101.313660,3.012014 119.523247,3.040435 
	C128.167236,3.053926 136.980133,2.520636 145.417419,3.972762 
	C160.991394,6.653171 171.288803,16.332932 175.967819,31.464920 
	C177.065063,35.013416 178.795761,36.317295 182.256653,37.089394 
	C197.288467,40.442886 211.908829,45.204388 224.857910,53.711933 
	C231.049271,57.779655 237.035843,62.613110 241.890198,68.169861 
	C252.901505,80.774467 252.668198,95.647873 242.216171,108.709145 
	C240.968704,110.268044 239.607819,111.736183 237.843811,113.664116 
	C221.934845,128.012390 203.063049,134.760681 183.339188,139.434326 
	C184.391220,137.683060 185.464676,136.278290 186.566910,134.896484 
	C188.945282,131.914948 192.943756,129.164215 193.385742,125.924301 
	C194.260773,119.509918 193.174316,112.827950 192.927933,105.820236 
	C193.550308,101.753662 192.620789,99.111122 188.656097,98.055862 
	C186.975845,97.608643 185.435730,96.634949 183.884552,95.537834 
	C184.006927,94.446976 184.076675,93.718803 184.478928,92.933624 
	C189.110687,89.333199 191.821167,84.681801 189.431900,79.455025 
	C187.238449,74.656647 183.839767,70.111534 177.556335,68.834641 
	C169.675781,62.524979 160.329102,60.780121 151.232697,60.242023 
	C136.214233,59.353600 121.073288,59.403229 106.045067,60.204155 
	C95.720024,60.754436 85.226799,62.466297 76.869522,69.841011 
	C74.767731,70.612144 72.544197,71.307907 70.987488,72.732384 
	C64.809692,78.385414 63.147984,87.644417 71.920959,93.352333 
	C72.047073,94.441589 72.107140,95.170677 71.826370,96.052132 
	C67.092819,98.223015 61.321873,99.091949 63.028011,106.655258 
	C62.749199,113.444748 61.713940,119.965240 62.677612,126.175568 
	C63.176136,129.388260 67.289070,131.996567 69.632370,134.985077 
	C70.790306,136.461838 71.638535,138.181427 72.282906,139.696228 
	C52.177147,134.718262 33.599300,127.353348 17.950783,113.847603 
z"/>
<path fill="#FEAFB9" solid-opacity="1.000000" stroke="none" 
	d="
M219.996796,237.530396 
	C208.828110,250.947220 195.437531,261.615051 179.705811,269.128754 
	C150.846756,282.912140 121.085030,284.909119 90.635262,275.004333 
	C69.990334,268.288910 52.457664,256.738922 38.035801,240.500153 
	C37.383324,239.765457 36.931709,238.852356 36.485882,237.548920 
	C42.806652,229.833069 48.352856,221.833450 55.416016,215.534958 
	C64.791557,207.174393 76.233345,202.219421 89.000076,201.448532 
	C88.583328,209.722855 92.075340,215.559998 98.211617,220.124344 
	C113.389832,231.414383 130.170837,232.451569 147.316254,226.572739 
	C160.718369,221.977432 168.996017,213.173965 168.414703,201.123749 
	C179.289948,202.702896 188.636520,206.960342 197.386566,212.858643 
	C206.933609,219.294220 213.590897,228.272186 219.996796,237.530396 
z"/>
<path fill="#65C9FE" solid-opacity="1.000000" stroke="none" 
	d="
M220.294983,237.321503 
	C213.590897,228.272186 206.933609,219.294220 197.386566,212.858643 
	C188.636520,206.960342 179.289948,202.702896 168.044281,201.012314 
	C165.509857,200.702118 163.749832,200.451035 161.536102,200.130493 
	C158.169098,200.061020 155.255814,200.061020 151.835266,200.061020 
	C151.835266,196.216843 151.835266,193.107742 151.897400,189.558411 
	C151.946564,186.745758 151.933578,184.373322 152.154388,181.747818 
	C169.669769,172.759674 179.788788,158.702866 183.373642,139.791229 
	C203.063049,134.760681 221.934845,128.012390 237.718414,113.965195 
	C246.874054,133.254517 249.515167,153.549606 247.148514,174.665665 
	C244.635345,197.088821 236.242111,217.038803 222.585968,234.876175 
	C221.980682,235.666809 221.260071,236.369141 220.294983,237.321503 
z"/>
<path fill="#65C9FE" solid-opacity="1.000000" stroke="none" 
	d="
M89.001762,201.016205 
	C76.233345,202.219421 64.791557,207.174393 55.416016,215.534958 
	C48.352856,221.833450 42.806652,229.833069 36.295097,237.304428 
	C23.210958,223.340179 15.437261,206.545197 11.122586,188.149780 
	C5.206966,162.928818 7.466833,138.280731 17.690056,114.100601 
	C33.599300,127.353348 52.177147,134.718262 72.385101,140.115265 
	C73.200607,142.409637 73.435432,144.230743 73.960167,145.964096 
	C78.886848,162.238403 88.957069,174.236511 104.049294,182.444397 
	C104.067711,185.258331 104.116219,187.628616 104.102798,190.453522 
	C104.040871,193.821365 104.040871,196.734589 104.040871,199.786591 
	C100.567307,199.941864 97.787811,200.066116 94.620560,200.133118 
	C92.489120,200.389328 90.745445,200.702759 89.001762,201.016205 
z"/>
<path fill="#E9B789" solid-opacity="1.000000" stroke="none" 
	d="
M104.079384,182.000763 
	C88.957069,174.236511 78.886848,162.238403 73.960167,145.964096 
	C73.435432,144.230743 73.200607,142.409637 72.729095,140.210205 
	C71.638535,138.181427 70.790306,136.461838 69.632370,134.985077 
	C67.289070,131.996567 63.176136,129.388260 62.677612,126.175568 
	C61.713940,119.965240 62.749199,113.444748 63.331581,106.828171 
	C64.276047,106.936623 64.845978,107.560150 65.413368,107.557846 
	C71.037613,107.535110 71.995209,110.856682 72.174881,115.701263 
	C72.543884,125.650543 79.210907,132.747223 89.403419,133.878983 
	C94.304558,134.423203 99.464722,134.285583 104.306206,133.380035 
	C115.129250,131.355698 122.016022,123.778000 121.867470,114.072960 
	C121.795586,109.377190 123.418991,107.913322 127.832176,107.863060 
	C132.450012,107.810478 134.357635,109.357376 134.122040,114.253113 
	C133.829636,120.329704 136.005188,125.635574 140.946243,129.627670 
	C150.719467,137.523880 172.110947,135.418365 179.863037,125.542084 
	C181.462402,123.504478 183.334503,120.800972 183.241074,118.478416 
	C182.952225,111.298744 185.674973,107.175270 192.898727,106.256599 
	C193.174316,112.827950 194.260773,119.509918 193.385742,125.924301 
	C192.943756,129.164215 188.945282,131.914948 186.566910,134.896484 
	C185.464676,136.278290 184.391220,137.683060 183.339188,139.434326 
	C179.788788,158.702866 169.669769,172.759674 151.790222,181.790359 
	C143.173386,183.724594 135.156723,186.625122 127.135040,186.639069 
	C119.452538,186.652435 111.764816,183.667786 104.079384,182.000763 
M143.086700,148.006012 
	C133.049606,148.024841 123.012520,148.043671 112.214043,148.014938 
	C109.509178,148.068054 108.393135,149.680374 109.526505,151.901001 
	C111.341377,155.456924 113.689629,158.740601 116.094933,162.634949 
	C123.319595,168.860657 132.939728,168.641647 140.737061,161.771652 
	C142.687378,158.404556 144.828918,155.123779 146.421326,151.595169 
	C146.727646,150.916382 144.879059,149.265121 143.086700,148.006012 
M125.957146,138.837326 
	C134.160950,139.094238 138.346954,136.775742 139.309616,131.467743 
	C131.682602,131.467743 124.059166,131.467743 116.280495,131.467743 
	C118.087601,136.272827 118.087601,136.272827 125.957146,138.837326 
z"/>
<path fill="#ECB889" solid-opacity="1.000000" stroke="none" 
	d="
M72.167198,95.899757 
	C72.107140,95.170677 72.047073,94.441589 72.000298,92.926949 
	C73.693802,84.794434 75.374016,77.447479 77.054230,70.100525 
	C85.226799,62.466297 95.720024,60.754436 106.045067,60.204155 
	C121.073288,59.403229 136.214233,59.353600 151.232697,60.242023 
	C160.329102,60.780121 169.675781,62.524979 177.690811,69.177444 
	C180.136505,77.437889 182.141464,85.214264 184.146423,92.990639 
	C184.076675,93.718803 184.006927,94.446976 183.513504,95.482208 
	C177.177826,94.769096 171.265808,93.748917 165.105042,92.460899 
	C158.619431,88.922005 152.039368,88.267632 145.195404,89.608124 
	C142.518494,90.132439 141.324860,91.364845 142.821396,94.316742 
	C140.971573,95.004921 139.152573,95.044197 137.777878,95.845619 
	C128.488251,101.261276 120.357292,96.994858 112.500137,92.984207 
	C113.284927,90.289047 113.325073,90.057449 110.497581,89.567337 
	C103.552742,88.363556 96.772354,88.675896 90.206284,92.789948 
	C83.918869,93.884109 78.043030,94.891937 72.167198,95.899757 
z"/>
<path fill="#2D2F31" solid-opacity="1.000000" stroke="none" 
	d="
M112.158607,93.021271 
	C120.357292,96.994858 128.488251,101.261276 137.777878,95.845619 
	C139.152573,95.044197 140.971573,95.004921 143.262421,94.305496 
	C151.077805,93.574883 158.215805,93.151817 165.353806,92.728745 
	C171.265808,93.748917 177.177826,94.769096 183.460876,95.844902 
	C185.435730,96.634949 186.975845,97.608643 188.656097,98.055862 
	C192.620789,99.111122 193.550308,101.753662 192.927933,105.820236 
	C185.674973,107.175270 182.952225,111.298744 183.241074,118.478416 
	C183.334503,120.800972 181.462402,123.504478 179.863037,125.542084 
	C172.110947,135.418365 150.719467,137.523880 140.946243,129.627670 
	C136.005188,125.635574 133.829636,120.329704 134.122040,114.253113 
	C134.357635,109.357376 132.450012,107.810478 127.832176,107.863060 
	C123.418991,107.913322 121.795586,109.377190 121.867470,114.072960 
	C122.016022,123.778000 115.129250,131.355698 104.306206,133.380035 
	C99.464722,134.285583 94.304558,134.423203 89.403419,133.878983 
	C79.210907,132.747223 72.543884,125.650543 72.174881,115.701263 
	C71.995209,110.856682 71.037613,107.535110 65.413368,107.557846 
	C64.845978,107.560150 64.276047,106.936623 63.403725,106.430618 
	C61.321873,99.091949 67.092819,98.223015 71.826370,96.052132 
	C78.043030,94.891937 83.918869,93.884109 90.698128,92.873650 
	C93.586212,92.904289 95.570755,92.955841 97.555542,92.967209 
	C102.423172,92.995094 107.290909,93.004456 112.158607,93.021271 
M77.071609,121.013283 
	C78.713448,123.045158 79.991173,125.618851 82.062874,127.011063 
	C89.357452,131.913116 105.555435,130.860275 112.460159,125.341530 
	C118.140930,120.801041 118.744141,114.754974 117.393585,108.157318 
	C116.219017,102.419426 112.023048,100.660255 106.889969,99.917679 
	C99.639229,98.868744 92.603531,98.788834 85.336525,100.804466 
	C79.659805,102.378998 76.553833,104.099457 76.167053,109.857582 
	C75.936836,113.284760 76.604462,116.772240 77.071609,121.013283 
M138.869720,120.237656 
	C140.155197,124.856468 143.402954,127.650177 147.797989,128.820770 
	C155.717682,130.930145 163.653214,130.731476 171.216599,127.298080 
	C179.414978,123.576431 182.897583,112.821548 178.319824,105.200096 
	C177.291061,103.487350 175.349289,101.661369 173.505493,101.212967 
	C164.983856,99.140533 156.353729,98.096985 147.590012,100.124603 
	C141.102844,101.625511 138.167343,104.823135 138.021790,111.528107 
	C137.964600,114.162018 138.413788,116.806915 138.869720,120.237656 
z"/>
<path fill="#19272D" solid-opacity="1.000000" stroke="none" 
	d="
M76.869522,69.841011 
	C75.374016,77.447479 73.693802,84.794434 71.934250,92.566772 
	C63.147984,87.644417 64.809692,78.385414 70.987488,72.732384 
	C72.544197,71.307907 74.767731,70.612144 76.869522,69.841011 
z"/>
<path fill="#18262D" solid-opacity="1.000000" stroke="none" 
	d="
M184.478943,92.933624 
	C182.141464,85.214264 180.136505,77.437889 177.997070,69.318726 
	C183.839767,70.111534 187.238449,74.656647 189.431900,79.455025 
	C191.821167,84.681801 189.110687,89.333199 184.478943,92.933624 
z"/>
<path fill="#E7A0A8" solid-opacity="1.000000" stroke="none" 
	d="
M89.000076,201.448532 
	C90.745445,200.702759 92.489120,200.389328 94.627533,200.511383 
	C96.008041,209.546753 101.275520,215.265671 108.610977,218.548981 
	C119.632210,223.481979 131.259354,224.527771 142.911758,220.475525 
	C152.732727,217.060181 160.897888,211.911453 161.989822,200.199951 
	C163.749832,200.451035 165.509857,200.702118 167.640289,201.064651 
	C168.996017,213.173965 160.718369,221.977432 147.316254,226.572739 
	C130.170837,232.451569 113.389832,231.414383 98.211617,220.124344 
	C92.075340,215.559998 88.583328,209.722855 89.000076,201.448532 
z"/>
<path fill="#EDB98A" solid-opacity="1.000000" stroke="none" 
	d="
M161.536102,200.130493 
	C160.897888,211.911453 152.732727,217.060181 142.911758,220.475525 
	C131.259354,224.527771 119.632210,223.481979 108.610977,218.548981 
	C101.275520,215.265671 96.008041,209.546753 95.015289,200.568634 
	C97.787811,200.066116 100.567307,199.941864 104.040871,199.786591 
	C104.040871,196.734589 104.040871,193.821365 104.464722,190.501862 
	C113.375214,191.730301 121.847542,194.535172 130.352890,194.639160 
	C137.493698,194.726456 144.673004,191.665665 151.835266,189.998642 
	C151.835266,193.107742 151.835266,196.216843 151.835266,200.061020 
	C155.255814,200.061020 158.169098,200.061020 161.536102,200.130493 
z"/>
<path fill="#D6A77C" solid-opacity="1.000000" stroke="none" 
	d="
M151.897400,189.558411 
	C144.673004,191.665665 137.493698,194.726456 130.352890,194.639160 
	C121.847542,194.535172 113.375214,191.730301 104.526649,190.047272 
	C104.116219,187.628616 104.067711,185.258331 104.049294,182.444397 
	C111.764816,183.667786 119.452538,186.652435 127.135040,186.639069 
	C135.156723,186.625122 143.173386,183.724594 151.556412,182.043427 
	C151.933578,184.373322 151.946564,186.745758 151.897400,189.558411 
z"/>
<path fill="#4C3A2C" solid-opacity="1.000000" stroke="none" 
	d="
M115.812424,162.139359 
	C113.689629,158.740601 111.341377,155.456924 109.526505,151.901001 
	C108.393135,149.680374 109.509178,148.068054 112.636261,148.406738 
	C113.932594,152.092651 116.235451,153.079269 119.428162,153.026825 
	C125.555962,152.926132 131.687149,152.947861 137.815842,153.016541 
	C141.309479,153.055679 143.531967,151.691315 144.024582,148.062485 
	C144.879059,149.265121 146.727646,150.916382 146.421326,151.595169 
	C144.828918,155.123779 142.687378,158.404556 140.249847,161.600037 
	C132.701080,157.551529 125.317368,159.237198 118.003998,160.278259 
	C117.201431,160.392517 116.539551,161.495148 115.812424,162.139359 
z"/>
<path fill="#C89C75" solid-opacity="1.000000" stroke="none" 
	d="
M125.572830,138.703461 
	C118.087601,136.272827 118.087601,136.272827 116.280495,131.467743 
	C124.059166,131.467743 131.682602,131.467743 139.309616,131.467743 
	C138.346954,136.775742 134.160950,139.094238 125.572830,138.703461 
z"/>
<path fill="#F7506B" solid-opacity="1.000000" stroke="none" 
	d="
M115.953674,162.387146 
	C116.539551,161.495148 117.201431,160.392517 118.003998,160.278259 
	C125.317368,159.237198 132.701080,157.551529 139.951065,161.757996 
	C132.939728,168.641647 123.319595,168.860657 115.953674,162.387146 
z"/>
<path fill="#FDFCFC" solid-opacity="1.000000" stroke="none" 
	d="
M143.555634,148.034241 
	C143.531967,151.691315 141.309479,153.055679 137.815842,153.016541 
	C131.687149,152.947861 125.555962,152.926132 119.428162,153.026825 
	C116.235451,153.079269 113.932594,152.092651 113.016953,148.430511 
	C123.012520,148.043671 133.049606,148.024841 143.555634,148.034241 
z"/>
<path fill="#66503B" solid-opacity="1.000000" stroke="none" 
	d="
M165.105042,92.460899 
	C158.215805,93.151817 151.077805,93.574883 143.498779,94.009201 
	C141.324860,91.364845 142.518494,90.132439 145.195404,89.608124 
	C152.039368,88.267632 158.619431,88.922005 165.105042,92.460899 
z"/>
<path fill="#66503B" solid-opacity="1.000000" stroke="none" 
	d="
M112.500137,92.984200 
	C107.290909,93.004456 102.423172,92.995094 97.555542,92.967209 
	C95.570755,92.955841 93.586212,92.904289 91.109711,92.787323 
	C96.772354,88.675896 103.552742,88.363556 110.497581,89.567337 
	C113.325073,90.057449 113.284927,90.289047 112.500137,92.984200 
z"/>
<path fill="#E7B587" solid-opacity="1.000000" stroke="none" 
	d="
M76.970024,120.622948 
	C76.604462,116.772240 75.936836,113.284760 76.167053,109.857582 
	C76.553833,104.099457 79.659805,102.378998 85.336525,100.804466 
	C92.603531,98.788834 99.639229,98.868744 106.889969,99.917679 
	C112.023048,100.660255 116.219017,102.419426 117.393585,108.157318 
	C118.744141,114.754974 118.140930,120.801041 112.460159,125.341530 
	C105.555435,130.860275 89.357452,131.913116 82.062874,127.011063 
	C79.991173,125.618851 78.713448,123.045158 76.970024,120.622948 
M100.848122,107.132675 
	C97.056938,108.523552 94.752563,111.217049 96.679596,115.029900 
	C97.614037,116.878792 100.984726,118.977715 102.689651,118.575844 
	C104.757629,118.088387 107.379784,115.255745 107.708519,113.121498 
	C108.287125,109.365036 105.514557,107.227089 100.848122,107.132675 
z"/>
<path fill="#E7B587" solid-opacity="1.000000" stroke="none" 
	d="
M138.751038,119.842239 
	C138.413788,116.806915 137.964600,114.162018 138.021790,111.528107 
	C138.167343,104.823135 141.102844,101.625511 147.590012,100.124603 
	C156.353729,98.096985 164.983856,99.140533 173.505493,101.212967 
	C175.349289,101.661369 177.291061,103.487350 178.319824,105.200096 
	C182.897583,112.821548 179.414978,123.576431 171.216599,127.298080 
	C163.653214,130.731476 155.717682,130.930145 147.797989,128.820770 
	C143.402954,127.650177 140.155197,124.856468 138.751038,119.842239 
M159.639740,111.103012 
	C158.087967,107.874229 155.380905,105.799454 152.173920,107.591339 
	C150.227753,108.678741 148.136383,112.058258 148.482544,113.980942 
	C148.831039,115.916550 152.027328,118.546242 154.134262,118.699989 
	C158.163498,118.994019 160.185455,116.031754 159.639740,111.103012 
z"/>
<path fill="#634D3A" solid-opacity="1.000000" stroke="none" 
	d="
M101.230522,107.084778 
	C105.514557,107.227089 108.287125,109.365036 107.708519,113.121498 
	C107.379784,115.255745 104.757629,118.088387 102.689651,118.575844 
	C100.984726,118.977715 97.614037,116.878792 96.679596,115.029900 
	C94.752563,111.217049 97.056938,108.523552 101.230522,107.084778 
z"/>
<path fill="#634D3A" solid-opacity="1.000000" stroke="none" 
	d="
M159.753891,111.478226 
	C160.185455,116.031754 158.163498,118.994019 154.134262,118.699989 
	C152.027328,118.546242 148.831039,115.916550 148.482544,113.980942 
	C148.136383,112.058258 150.227753,108.678741 152.173920,107.591339 
	C155.380905,105.799454 158.087967,107.874229 159.753891,111.478226 
z"/>
</svg>